<mxfile host="app.diagrams.net" modified="2022-03-19T12:41:07.592Z" agent="5.0 (Windows NT 10.0; Win64; x64) AppleWebKit/537.36 (KHTML, like Gecko) Chrome/99.0.4844.51 Safari/537.36 Edg/99.0.1150.39" etag="gY-M6I4Fd7uhYLwe2g9y" version="17.1.3" type="github">
  <diagram id="C5RBs43oDa-KdzZeNtuy" name="Page-1">
    <mxGraphModel dx="856" dy="545" grid="1" gridSize="10" guides="1" tooltips="1" connect="1" arrows="1" fold="1" page="1" pageScale="1" pageWidth="827" pageHeight="1169" math="0" shadow="0">
      <root>
        <mxCell id="WIyWlLk6GJQsqaUBKTNV-0" />
        <mxCell id="WIyWlLk6GJQsqaUBKTNV-1" parent="WIyWlLk6GJQsqaUBKTNV-0" />
        <mxCell id="Yt1Z-wMDFNS2D9Avdcn8-0" value="" style="edgeStyle=orthogonalEdgeStyle;rounded=0;orthogonalLoop=1;jettySize=auto;html=1;entryX=0.5;entryY=0;entryDx=0;entryDy=0;" edge="1" parent="WIyWlLk6GJQsqaUBKTNV-1" source="Yt1Z-wMDFNS2D9Avdcn8-1" target="Yt1Z-wMDFNS2D9Avdcn8-7">
          <mxGeometry relative="1" as="geometry">
            <mxPoint x="297" y="100" as="targetPoint" />
          </mxGeometry>
        </mxCell>
        <mxCell id="Yt1Z-wMDFNS2D9Avdcn8-1" value="开始" style="ellipse;whiteSpace=wrap;html=1;" vertex="1" parent="WIyWlLk6GJQsqaUBKTNV-1">
          <mxGeometry x="259" y="40" width="78" height="43" as="geometry" />
        </mxCell>
        <mxCell id="Yt1Z-wMDFNS2D9Avdcn8-52" value="" style="edgeStyle=orthogonalEdgeStyle;rounded=0;orthogonalLoop=1;jettySize=auto;html=1;" edge="1" parent="WIyWlLk6GJQsqaUBKTNV-1" source="Yt1Z-wMDFNS2D9Avdcn8-7" target="Yt1Z-wMDFNS2D9Avdcn8-47">
          <mxGeometry relative="1" as="geometry" />
        </mxCell>
        <mxCell id="Yt1Z-wMDFNS2D9Avdcn8-7" value="发现告警误报" style="rounded=1;whiteSpace=wrap;html=1;fontSize=12;glass=0;strokeWidth=1;shadow=0;" vertex="1" parent="WIyWlLk6GJQsqaUBKTNV-1">
          <mxGeometry x="246" y="120" width="104" height="40" as="geometry" />
        </mxCell>
        <mxCell id="Yt1Z-wMDFNS2D9Avdcn8-46" value="" style="edgeStyle=orthogonalEdgeStyle;rounded=0;orthogonalLoop=1;jettySize=auto;html=1;" edge="1" parent="WIyWlLk6GJQsqaUBKTNV-1" source="Yt1Z-wMDFNS2D9Avdcn8-31" target="Yt1Z-wMDFNS2D9Avdcn8-45">
          <mxGeometry relative="1" as="geometry" />
        </mxCell>
        <mxCell id="Yt1Z-wMDFNS2D9Avdcn8-31" value="新增白名单" style="rounded=1;whiteSpace=wrap;html=1;fontSize=12;glass=0;strokeWidth=1;shadow=0;" vertex="1" parent="WIyWlLk6GJQsqaUBKTNV-1">
          <mxGeometry x="246" y="370" width="104" height="40" as="geometry" />
        </mxCell>
        <mxCell id="Yt1Z-wMDFNS2D9Avdcn8-33" value="结束" style="ellipse;whiteSpace=wrap;html=1;" vertex="1" parent="WIyWlLk6GJQsqaUBKTNV-1">
          <mxGeometry x="259" y="630" width="78" height="43" as="geometry" />
        </mxCell>
        <mxCell id="Yt1Z-wMDFNS2D9Avdcn8-51" value="" style="edgeStyle=orthogonalEdgeStyle;rounded=0;orthogonalLoop=1;jettySize=auto;html=1;entryX=0.5;entryY=0;entryDx=0;entryDy=0;" edge="1" parent="WIyWlLk6GJQsqaUBKTNV-1" source="Yt1Z-wMDFNS2D9Avdcn8-45" target="Yt1Z-wMDFNS2D9Avdcn8-57">
          <mxGeometry relative="1" as="geometry" />
        </mxCell>
        <mxCell id="Yt1Z-wMDFNS2D9Avdcn8-45" value="检查误报情况" style="rounded=1;whiteSpace=wrap;html=1;fontSize=12;glass=0;strokeWidth=1;shadow=0;" vertex="1" parent="WIyWlLk6GJQsqaUBKTNV-1">
          <mxGeometry x="246" y="440" width="104" height="40" as="geometry" />
        </mxCell>
        <mxCell id="Yt1Z-wMDFNS2D9Avdcn8-50" value="" style="edgeStyle=orthogonalEdgeStyle;rounded=0;orthogonalLoop=1;jettySize=auto;html=1;" edge="1" parent="WIyWlLk6GJQsqaUBKTNV-1" source="Yt1Z-wMDFNS2D9Avdcn8-47" target="Yt1Z-wMDFNS2D9Avdcn8-53">
          <mxGeometry relative="1" as="geometry" />
        </mxCell>
        <mxCell id="Yt1Z-wMDFNS2D9Avdcn8-56" value="" style="edgeStyle=orthogonalEdgeStyle;rounded=0;orthogonalLoop=1;jettySize=auto;html=1;" edge="1" parent="WIyWlLk6GJQsqaUBKTNV-1" source="Yt1Z-wMDFNS2D9Avdcn8-47" target="Yt1Z-wMDFNS2D9Avdcn8-55">
          <mxGeometry relative="1" as="geometry" />
        </mxCell>
        <mxCell id="Yt1Z-wMDFNS2D9Avdcn8-47" value="是否适用白名单？" style="rhombus;whiteSpace=wrap;html=1;" vertex="1" parent="WIyWlLk6GJQsqaUBKTNV-1">
          <mxGeometry x="258" y="190" width="80" height="80" as="geometry" />
        </mxCell>
        <mxCell id="Yt1Z-wMDFNS2D9Avdcn8-54" value="" style="edgeStyle=orthogonalEdgeStyle;rounded=0;orthogonalLoop=1;jettySize=auto;html=1;entryX=0.5;entryY=0;entryDx=0;entryDy=0;" edge="1" parent="WIyWlLk6GJQsqaUBKTNV-1" source="Yt1Z-wMDFNS2D9Avdcn8-53" target="Yt1Z-wMDFNS2D9Avdcn8-31">
          <mxGeometry relative="1" as="geometry" />
        </mxCell>
        <mxCell id="Yt1Z-wMDFNS2D9Avdcn8-53" value="制定白名单策略" style="rounded=1;whiteSpace=wrap;html=1;fontSize=12;glass=0;strokeWidth=1;shadow=0;" vertex="1" parent="WIyWlLk6GJQsqaUBKTNV-1">
          <mxGeometry x="246" y="300" width="104" height="40" as="geometry" />
        </mxCell>
        <mxCell id="Yt1Z-wMDFNS2D9Avdcn8-55" value="考虑其他降低误报手段" style="rounded=1;whiteSpace=wrap;html=1;fontSize=12;glass=0;strokeWidth=1;shadow=0;" vertex="1" parent="WIyWlLk6GJQsqaUBKTNV-1">
          <mxGeometry x="390" y="210" width="104" height="40" as="geometry" />
        </mxCell>
        <mxCell id="Yt1Z-wMDFNS2D9Avdcn8-58" value="" style="edgeStyle=orthogonalEdgeStyle;rounded=0;orthogonalLoop=1;jettySize=auto;html=1;" edge="1" parent="WIyWlLk6GJQsqaUBKTNV-1" source="Yt1Z-wMDFNS2D9Avdcn8-57" target="Yt1Z-wMDFNS2D9Avdcn8-33">
          <mxGeometry relative="1" as="geometry" />
        </mxCell>
        <mxCell id="Yt1Z-wMDFNS2D9Avdcn8-61" style="edgeStyle=orthogonalEdgeStyle;rounded=0;orthogonalLoop=1;jettySize=auto;html=1;exitX=0;exitY=0.5;exitDx=0;exitDy=0;entryX=0;entryY=0.5;entryDx=0;entryDy=0;" edge="1" parent="WIyWlLk6GJQsqaUBKTNV-1" source="Yt1Z-wMDFNS2D9Avdcn8-57" target="Yt1Z-wMDFNS2D9Avdcn8-53">
          <mxGeometry relative="1" as="geometry">
            <Array as="points">
              <mxPoint x="170" y="550" />
              <mxPoint x="170" y="320" />
            </Array>
          </mxGeometry>
        </mxCell>
        <mxCell id="Yt1Z-wMDFNS2D9Avdcn8-57" value="是否解决误报？" style="rhombus;whiteSpace=wrap;html=1;" vertex="1" parent="WIyWlLk6GJQsqaUBKTNV-1">
          <mxGeometry x="258" y="510" width="80" height="80" as="geometry" />
        </mxCell>
        <mxCell id="Yt1Z-wMDFNS2D9Avdcn8-59" value="Yes" style="text;html=1;align=center;verticalAlign=middle;resizable=0;points=[];autosize=1;strokeColor=none;fillColor=none;" vertex="1" parent="WIyWlLk6GJQsqaUBKTNV-1">
          <mxGeometry x="265" y="580" width="30" height="20" as="geometry" />
        </mxCell>
        <mxCell id="Yt1Z-wMDFNS2D9Avdcn8-60" value="Yes" style="text;html=1;align=center;verticalAlign=middle;resizable=0;points=[];autosize=1;strokeColor=none;fillColor=none;" vertex="1" parent="WIyWlLk6GJQsqaUBKTNV-1">
          <mxGeometry x="265" y="270" width="30" height="20" as="geometry" />
        </mxCell>
        <mxCell id="Yt1Z-wMDFNS2D9Avdcn8-62" value="No" style="text;html=1;align=center;verticalAlign=middle;resizable=0;points=[];autosize=1;strokeColor=none;fillColor=none;" vertex="1" parent="WIyWlLk6GJQsqaUBKTNV-1">
          <mxGeometry x="216" y="530" width="30" height="20" as="geometry" />
        </mxCell>
        <mxCell id="Yt1Z-wMDFNS2D9Avdcn8-63" value="No" style="text;html=1;align=center;verticalAlign=middle;resizable=0;points=[];autosize=1;strokeColor=none;fillColor=none;" vertex="1" parent="WIyWlLk6GJQsqaUBKTNV-1">
          <mxGeometry x="335" y="210" width="30" height="20" as="geometry" />
        </mxCell>
      </root>
    </mxGraphModel>
  </diagram>
</mxfile>
